<?xml version="1.0" encoding="UTF-8" standalone="no"?>
<!DOCTYPE svg PUBLIC "-//W3C//DTD SVG 1.1//EN" "http://www.w3.org/Graphics/SVG/1.1/DTD/svg11.dtd">
<svg width="100%" height="100%" viewBox="0 0 450 66" version="1.1" xmlns="http://www.w3.org/2000/svg" xmlns:xlink="http://www.w3.org/1999/xlink" xml:space="preserve" xmlns:serif="http://www.serif.com/" style="fill-rule:evenodd;clip-rule:evenodd;stroke-linejoin:round;stroke-miterlimit:2;">
    <g id="Artboard2" transform="matrix(0.889273,0,0,0.921574,-8.49701,-3.23878)">
        <rect x="9.555" y="3.514" width="505.232" height="70.661" style="fill:none;"/>
        <clipPath id="_clip1">
            <rect x="9.555" y="3.514" width="505.232" height="70.661"/>
        </clipPath>
        <g clip-path="url(#_clip1)">
            <g transform="matrix(1.12451,0,0,1.0851,-497.931,7.67108)">
                <path d="M578.251,59.104L529.5,59.104L529.5,55.135L578.251,55.135L578.251,59.104ZM553.869,44.4C542.335,44.4 532.979,34.554 532.979,22.402C532.979,10.249 542.335,0.352 553.869,0.352C565.403,0.352 574.54,10.198 574.54,22.415C574.54,34.631 565.184,44.413 553.869,44.413L553.869,44.4ZM553.869,4.553C544.513,4.553 536.897,12.556 536.897,22.402C536.897,32.247 544.5,40.25 553.869,40.25C563.238,40.25 570.635,32.247 570.635,22.402C570.635,12.556 563.019,4.553 553.869,4.553Z" style="fill:rgb(64,189,70);"/>
                <g transform="matrix(1.97621,0,0,1.97621,-580.222,-58.2138)">
                    <path d="M737.754,47.054L732.753,30.701L737.109,30.701L739.944,41.191L740.176,41.191L742.986,30.701L747.109,30.701L741.903,47.054L741.903,59.22L737.766,59.22L737.766,47.054L737.754,47.054ZM724.699,42.918C725.55,42.969 726.22,42.737 726.645,42.261C727.07,41.784 727.302,41.011 727.302,39.954L727.302,37.712C727.302,36.706 727.083,35.933 726.877,35.508C726.426,34.979 725.782,34.748 725.124,34.799L723.165,34.799L723.165,42.931L724.699,42.931L724.699,42.918ZM719.042,30.701L725.356,30.701C727.534,30.701 729.055,31.229 729.931,32.299C731.014,33.433 731.452,35.031 731.452,37.273L731.452,39C731.452,41.964 730.588,43.859 728.836,44.632L728.836,44.748C729.712,44.993 730.575,45.701 731.014,46.707C731.452,48.086 731.671,49.323 731.671,50.766L731.671,57.725C731.671,58.253 731.89,58.73 732.096,59.22L727.753,59.22C727.534,58.795 727.534,58.382 727.315,57.905L727.315,50.495C727.315,49.194 727.096,48.305 726.658,47.776C726.439,47.235 725.575,46.99 724.699,46.99L723.165,46.99L723.165,59.22L719.042,59.22L719.042,30.701ZM711.864,52.764L711.864,37.222C711.864,35.327 711.206,34.374 709.686,34.374C708.165,34.374 707.508,35.327 707.508,37.222L707.508,52.764C707.508,54.658 708.165,55.547 709.686,55.547C711.206,55.547 711.864,54.593 711.864,52.764ZM704.892,57.738C703.809,56.488 703.371,54.761 703.371,52.454L703.371,37.454C703.371,35.211 703.796,33.433 704.892,32.196C705.987,30.933 707.727,30.289 709.686,30.289C711.864,30.289 713.384,30.933 714.467,32.183C715.549,33.42 716.206,35.199 716.206,37.441L716.206,52.441C716.206,54.748 715.549,56.475 714.467,57.725C713.384,59.027 711.864,59.619 709.686,59.619C707.727,59.619 705.987,58.962 704.892,57.725L704.892,57.738ZM693.152,34.786L688.577,34.786L688.577,30.701L701.631,30.701L701.631,34.786L697.276,34.786L697.276,59.22L693.152,59.22L693.152,34.786ZM676.386,57.789C675.303,56.552 674.646,54.825 674.646,52.635L674.646,37.351C674.646,35.095 675.29,33.369 676.386,32.118C677.468,30.933 679.002,30.289 680.961,30.289C682.919,30.289 684.44,30.933 685.535,32.118C686.618,33.369 687.275,35.083 687.275,37.338L687.275,40.302L683.151,40.302L683.151,37.041C683.151,35.263 682.494,34.374 681.193,34.374C679.659,34.374 679.015,35.263 679.015,37.041L679.015,52.931C679.015,54.709 679.672,55.547 681.205,55.547C682.507,55.547 683.164,54.709 683.164,52.931L683.164,48.588L687.288,48.588L687.288,52.622C687.288,54.825 686.644,56.527 685.561,57.789C684.466,59.039 682.945,59.632 680.986,59.632C679.028,59.632 677.507,59.039 676.412,57.789L676.386,57.789ZM667.468,49.787L665.715,35.675L665.496,35.675L663.756,49.787L667.468,49.787ZM662.906,30.701L668.563,30.701L673.138,59.22L668.782,59.22L668.125,53.601L668.125,53.653L663.357,53.653L662.481,59.233L658.576,59.233L662.919,30.714L662.906,30.701ZM647.674,30.701L658.769,30.701L658.769,34.786L651.81,34.786L651.81,42.737L657.249,42.737L657.249,46.771L651.81,46.771L651.81,59.22L647.674,59.22L647.674,30.701ZM640.276,30.701L644.413,30.701L644.413,59.22L640.276,59.22L640.276,30.701ZM629.632,34.786L625.044,34.786L625.044,30.701L638.33,30.701L638.33,34.786L633.756,34.786L633.756,59.22L629.632,59.22L629.632,34.786ZM616.551,42.918C617.428,42.969 617.866,42.737 618.51,42.261C618.936,41.784 619.168,41.011 619.168,39.954L619.168,37.712C619.168,36.706 618.948,35.933 618.51,35.508C618.291,34.979 617.647,34.748 616.99,34.799L615.018,34.799L615.018,42.931L616.551,42.931L616.551,42.918ZM610.881,30.701L616.99,30.701C619.155,30.701 620.894,31.229 621.771,32.299C622.853,33.433 623.291,35.031 623.291,37.273L623.291,39C623.291,41.964 622.428,43.859 620.675,44.632L620.675,44.748C621.526,44.993 622.415,45.701 622.84,46.707C623.266,48.086 623.498,49.323 623.498,50.766L623.498,57.725C623.498,58.253 623.717,58.73 623.923,59.22L619.58,59.22C619.348,58.795 619.348,58.382 619.142,57.905L619.142,50.495C619.142,49.194 618.923,48.305 618.485,47.776C618.059,47.235 617.402,46.99 616.526,46.99L615.005,46.99L615.005,59.22L610.881,59.22L610.881,30.701ZM603.278,49.787L601.319,35.675L599.36,49.787L603.278,49.787ZM598.716,30.701L604.373,30.701L608.729,59.22L604.592,59.22L603.729,53.601L603.729,53.653L598.935,53.653L598.291,59.233L594.36,59.233L598.716,30.714L598.716,30.701Z"/>
                </g>
                <g transform="matrix(1,0,0,1,449.441,-5.78479)">
                    <path d="M65.04,45.17L63.403,42.554C62.496,43.416 61.385,43.908 60.303,43.908C59.806,43.908 59.543,43.847 58.461,43.57C57.379,43.262 56.618,43.169 55.771,43.169C51.94,43.169 49.455,45.263 49.455,48.494C49.455,50.833 50.508,52.28 52.672,52.865C51.794,53.08 50.829,53.542 50.391,54.066C50.069,54.435 49.923,54.927 49.923,55.511C49.923,56.005 50.04,56.435 50.215,56.804C50.419,57.143 50.712,57.42 51.063,57.574C51.764,57.851 52.905,58.035 54.659,58.067C55.566,58.067 56.122,58.097 56.327,58.097C57.409,58.159 57.964,58.343 58.374,58.559C58.783,58.805 59.075,59.359 59.075,59.974C59.075,60.59 58.695,61.206 58.14,61.575C57.613,61.945 56.765,62.099 55.654,62.099C53.841,62.099 52.847,61.421 52.847,60.159C52.847,59.605 52.905,59.482 53.022,59.143L49.396,59.143C49.25,59.451 49.046,59.882 49.046,60.744C49.046,61.822 49.455,62.745 50.274,63.545C51.619,64.869 53.812,65.238 55.947,65.238C58.285,65.238 60.538,64.684 61.853,63.206C62.671,62.283 63.051,61.267 63.051,59.944C63.051,58.528 62.642,57.451 61.765,56.589C60.712,55.573 59.514,55.203 57.233,55.173L55.127,55.143C54.718,55.143 54.485,54.989 54.485,54.773C54.485,54.342 55.039,53.972 56.034,53.481C56.327,53.511 56.443,53.511 56.618,53.511C59.806,53.511 62.145,51.541 62.145,48.833C62.145,47.786 61.853,46.987 61.267,46.248C61.765,46.309 61.911,46.34 62.291,46.34C63.373,46.34 64.191,46.001 65.04,45.17ZM67.451,29.894C67.451,28.124 66.36,26.485 64.504,25.138C64.671,25.678 64.765,26.228 64.765,26.789C64.765,31.857 57.688,36.194 47.656,37.989C48.791,38.117 49.968,38.187 51.178,38.187C60.166,38.187 67.451,34.474 67.451,29.894ZM61.668,27.138C61.668,32.002 50.788,35.944 37.367,35.944C23.947,35.944 13.068,32.002 13.068,27.138C13.068,25.606 14.147,24.166 16.045,22.911C15.752,23.449 15.596,24.006 15.596,24.576C15.596,29.069 25.165,32.711 36.97,32.711C48.775,32.711 58.345,29.069 58.345,24.576C58.345,23.726 58,22.906 57.364,22.135C60.075,23.556 61.668,25.279 61.668,27.138ZM15.753,19.352C10.851,20.549 7.521,22.895 7.521,25.593C7.521,27.262 8.798,28.796 10.931,30.007C10.29,28.982 9.942,27.903 9.942,26.789C9.942,23.983 12.115,21.403 15.753,19.352ZM63.688,11.444C63.237,10.901 62.619,10.903 62.132,11.344C61.662,11.968 61.648,12.412 61.982,12.756C62.338,13.125 63.077,13.442 63.609,13.02C64.141,12.596 64.139,11.986 63.688,11.444ZM57.513,13.466C59.034,11.344 61.945,15.096 58.646,15.618C57.326,15.827 55.097,17.271 54.14,19.55C52.79,22.923 53.374,25.419 51.052,26.921C46.101,30.12 30.846,31.327 24.278,27.223C19.129,24.006 20.895,18.906 6.167,7.665C4.241,6.196 6.522,4.636 7.965,5.635C9.407,6.634 8.087,6.899 10.996,9.811C16.873,15.69 16.814,10.405 17.742,12.404C19.694,16.608 23.999,20.842 23.999,20.842C28.311,23.648 31.754,24.262 38.114,19.958C42.147,17.23 40.497,24.299 50.389,19.204C53.996,17.345 53.846,18.578 57.513,13.466L57.513,13.466ZM14.596,8.073C14.347,7.722 13.606,7.561 13.11,8.059C12.615,8.558 12.859,9.051 13.145,9.347C13.555,9.772 14.251,9.737 14.665,9.506C15.081,9.276 14.993,8.632 14.596,8.073ZM4.371,4.171C4.694,3.816 5.102,3.145 4.401,1.861C3.889,0.921 2.198,0.536 1.601,0.895C1.006,1.255 0.278,2.643 1.275,3.254C2.559,4.042 3.401,5.233 4.371,4.171ZM65.349,2.426C64.897,1.769 63.942,1.888 62.997,2.574C62.051,3.259 62.23,4.562 62.543,4.865C63.091,5.398 64.553,5.038 64.893,4.656C65.77,3.675 65.801,3.083 65.349,2.426ZM59.908,6.598C61.262,5.96 63.39,8.034 60.31,9.592C55.907,11.818 55.441,14.581 52.659,16.338C47.981,19.292 49.413,16.457 41.888,15.384C38.99,14.971 38.058,18.203 35.796,17.269C30.58,15.115 26.938,15.528 23.56,18.275C22.337,17.736 21.058,15.653 20.556,14.819C21.926,13.477 21.373,11.236 20.599,10.006C19.827,8.777 18.891,9.126 17.864,7.995C16.836,6.865 18.251,3.917 19.568,6.182C24.5,14.668 27.738,11.138 31.767,10.632C35.634,10.147 39.052,12.253 40.1,6.287C40.272,5.312 41.222,5.079 41.319,6.691C41.415,8.305 42.021,12.234 44.147,12.741C46.272,13.247 47.96,12.243 48.458,11.685C48.956,11.128 49.216,11.209 49.435,12.592C49.654,13.977 50.193,15.888 53.178,13.759C59.282,9.403 57.536,7.718 59.908,6.598ZM41.764,2.612C41.783,1.915 41.467,1.478 40.779,1.502C40.092,1.527 39.845,1.873 39.868,2.546C40.039,3.82 40.253,3.789 40.709,3.907C41.165,4.025 41.744,3.308 41.764,2.612ZM17.29,3.809C17.589,3.431 17.618,2.934 17.221,2.374C16.972,2.024 15.807,1.784 15.313,2.282C14.818,2.781 15.269,3.565 15.654,3.684C16.368,3.904 16.686,4.569 17.29,3.809ZM58.111,48.525C58.111,49.972 57.262,50.771 55.712,50.771C54.338,50.771 53.402,50.126 53.402,48.525C53.402,47.047 54.251,46.186 55.742,46.186C57.233,46.186 58.111,47.047 58.111,48.525ZM46.882,57.359C48.17,55.819 48.753,53.972 48.753,51.264C48.753,48.71 48.227,46.987 47.029,45.508C45.742,43.908 44.076,43.139 41.94,43.139C37.906,43.139 35.216,46.431 35.216,51.388C35.216,56.343 37.876,59.544 41.94,59.544C44.25,59.544 45.742,58.713 46.882,57.359ZM44.485,51.234C44.485,54.958 43.754,56.558 42.058,56.558C41.297,56.558 40.421,56.128 40.07,55.266C39.748,54.465 39.572,53.11 39.572,51.295C39.572,49.725 39.718,48.617 39.982,47.786C40.303,46.801 41.063,46.186 41.999,46.186C42.701,46.186 43.315,46.494 43.695,47.017C44.221,47.724 44.485,49.109 44.485,51.234ZM7.194,62.036L9.093,64.252C10.936,63.514 13.246,61.853 13.83,59.237C14.035,58.374 14.122,57.82 14.122,55.049L14.122,37.924L9.971,37.924L9.971,55.511C9.971,57.82 9.884,58.682 9.562,59.451C9.182,60.313 8.245,61.359 7.194,62.036ZM16.786,37.876L16.36,37.876L16.36,59.205L20.453,59.205L20.453,49.755L25.629,49.755L25.629,46.248L20.453,46.248L20.453,41.353L26.914,41.353L27.165,39.491C23.283,39.194 19.754,38.569 16.786,37.876ZM30.394,43.077C30.746,43.724 30.949,44.432 31.008,45.325C31.564,44.524 32.5,43.693 33.231,43.323C33.553,43.169 34.079,43.077 34.517,43.077C35.102,43.077 35.365,43.139 35.979,43.416L34.897,47.047C34.517,46.833 34.196,46.74 33.757,46.74C32.88,46.74 32.09,47.171 31.359,48.063L31.359,59.205L27.441,59.205L27.441,48.678C27.441,46.554 27.207,44.954 26.886,44.062L30.394,43.077Z" style="fill:rgb(64,190,70);"/>
                </g>
            </g>
        </g>
    </g>
</svg>
