<?xml version="1.0" encoding="UTF-8" standalone="no"?>
<!DOCTYPE svg PUBLIC "-//W3C//DTD SVG 1.1//EN" "http://www.w3.org/Graphics/SVG/1.1/DTD/svg11.dtd">
<svg width="100%" height="100%" viewBox="0 0 2065 10638" version="1.1" xmlns="http://www.w3.org/2000/svg" xmlns:xlink="http://www.w3.org/1999/xlink" xml:space="preserve" xmlns:serif="http://www.serif.com/" style="fill-rule:evenodd;clip-rule:evenodd;stroke-linejoin:round;stroke-miterlimit:2;">
    <g transform="matrix(1,0,0,1,-38781.2,-26936.8)">
        <g id="devanagari_left_curly_brace_curves" transform="matrix(0.73176,0,0,1.08204,38423.7,26749.3)">
            <rect x="488.599" y="173.274" width="2820.82" height="9830.95" style="fill:none;"/>
            <g id="_-left_curly_brace" serif:id=" left_curly_brace" transform="matrix(6.53668,0,0,7.09435,-15369.7,-20164.2)">
                <path d="M2821.7,4194.89L2821.7,4223.61L2627.75,4223.61C2594.94,4223.61 2570.82,4214.62 2555.39,4196.65C2539.96,4178.68 2532.24,4147.04 2532.24,4101.73L2532.24,3664.03C2532.24,3638.25 2524.72,3615.7 2509.68,3596.36C2494.65,3577.02 2475.02,3565.99 2450.8,3563.25L2450.8,3538.64C2475.02,3535.91 2494.65,3524.88 2509.68,3505.54C2524.72,3486.2 2532.24,3463.64 2532.24,3437.86L2532.24,2999.58C2532.24,2954.27 2539.96,2922.53 2555.39,2904.37C2570.82,2886.2 2594.94,2877.12 2627.75,2877.12L2821.7,2877.71L2821.7,2905.83L2674.63,2905.83C2656.27,2905.83 2641.81,2911.69 2631.27,2923.41C2620.72,2935.13 2615.45,2962.08 2615.45,3004.27L2615.45,3398.61C2615.45,3424.39 2611.25,3450.46 2602.85,3476.83C2594.45,3503.2 2559.2,3527.9 2497.09,3550.95C2550.6,3570.48 2583.71,3592.94 2596.4,3618.33C2609.1,3643.72 2615.45,3672.04 2615.45,3703.29L2615.45,4097.04C2615.45,4138.84 2620.72,4165.6 2631.27,4177.32C2641.81,4189.03 2656.27,4194.89 2674.63,4194.89L2821.7,4194.89Z" style="fill-rule:nonzero;"/>
            </g>
        </g>
    </g>
</svg>
