<?xml version="1.0" encoding="UTF-8" standalone="no"?>
<!DOCTYPE svg PUBLIC "-//W3C//DTD SVG 1.1//EN" "http://www.w3.org/Graphics/SVG/1.1/DTD/svg11.dtd">
<svg width="100%" height="100%" viewBox="0 0 2335 538" version="1.1" xmlns="http://www.w3.org/2000/svg" xmlns:xlink="http://www.w3.org/1999/xlink" xml:space="preserve" xmlns:serif="http://www.serif.com/" style="fill-rule:evenodd;clip-rule:evenodd;stroke-linejoin:round;stroke-miterlimit:2;">
    <path d="M664.01,223.35C647.46,212.21 603.98,207.46 572.37,215.97C570.67,184.48 554.43,157.94 524.72,134.8L513.73,127.42L506.4,138.49C492,160.35 485.93,189.49 488.07,215.98C489.77,232.3 495.44,250.64 506.4,263.95C465.25,287.82 427.33,282.4 259.37,282.4L0.06,282.4C-0.7,320.33 5.4,393.28 51.79,452.67C56.91,459.23 62.53,465.58 68.63,471.69C106.35,509.46 163.34,537.16 248.56,537.23C378.56,537.35 489.95,467.07 557.71,297.16C580.01,297.53 638.86,301.15 667.66,245.5C668.36,244.56 674.99,230.74 674.99,230.74L664.01,223.36L664.01,223.35ZM169.29,184.21L96.37,184.21L96.37,257.13L169.29,257.13L169.29,184.21ZM263.5,184.21L190.58,184.21L190.58,257.13L263.5,257.13L263.5,184.21ZM357.71,184.21L284.79,184.21L284.79,257.13L357.71,257.13L357.71,184.21ZM451.92,184.21L379,184.21L379,257.13L451.92,257.13L451.92,184.21ZM75.1,184.21L2.16,184.21L2.16,257.13L75.08,257.13L75.08,184.21L75.1,184.21ZM169.31,92.1L96.39,92.1L96.39,165.02L169.31,165.02L169.31,92.1ZM263.52,92.1L190.6,92.1L190.6,165.02L263.52,165.02L263.52,92.1ZM357.73,92.1L284.81,92.1L284.81,165.02L357.73,165.02L357.73,92.1ZM357.7,0L284.78,0L284.78,72.92L357.7,72.92L357.7,0ZM2329.93,424.7C2329.93,443.64 2315.06,458.51 2295.72,458.51C2276.38,458.51 2261.3,443.64 2261.3,424.7C2261.3,405.76 2276.57,391.3 2295.72,391.3C2314.87,391.3 2329.93,406.17 2329.93,424.7ZM2269.85,424.7C2269.85,439.57 2280.85,451.38 2295.92,451.38C2310.99,451.38 2321.38,439.57 2321.38,424.91C2321.38,410.25 2310.58,398.02 2295.73,398.02C2280.88,398.02 2269.86,410.04 2269.86,424.7L2269.85,424.7ZM2290.43,442.22L2282.69,442.22L2282.69,408.82C2285.73,408.21 2290.02,407.8 2295.51,407.8C2301.83,407.8 2304.67,408.82 2307.12,410.25C2308.96,411.67 2310.38,414.32 2310.38,417.58C2310.38,421.25 2307.53,424.1 2303.47,425.32L2303.47,425.73C2306.71,426.94 2308.55,429.39 2309.57,433.87C2310.58,438.96 2311.19,441 2312.02,442.22L2303.67,442.22C2302.65,441 2302.03,437.95 2301.02,434.07C2300.41,430.41 2298.37,428.78 2294.09,428.78L2290.43,428.78L2290.43,442.23L2290.43,442.22ZM2290.63,423.28L2294.29,423.28C2298.57,423.28 2302.03,421.86 2302.03,418.4C2302.03,415.34 2299.8,413.29 2294.9,413.29C2292.87,413.29 2291.44,413.5 2290.63,413.72L2290.63,423.28ZM1017.65,86.68C1012.86,82 1007.11,79.62 1000.22,79.62C993.33,79.62 987.41,82 982.8,86.68C978.18,91.36 975.92,97.36 975.92,104.51L975.92,223.91C952.22,204.32 924.87,194.44 893.76,194.44C857.6,194.44 826.68,207.5 801.06,233.71C775.44,259.83 762.72,291.43 762.72,328.49C762.72,365.55 775.53,397.06 801.06,423.27C826.68,449.39 857.52,462.54 893.76,462.54C930,462.54 960.5,449.48 986.46,423.27C1012.08,397.41 1024.8,365.82 1024.8,328.49L1024.8,104.5C1024.8,97.35 1022.45,91.35 1017.65,86.67L1017.65,86.68ZM969.47,360.79L969.47,360.97C965.2,371.12 959.36,380.03 951.96,387.62C944.56,395.3 935.84,401.3 925.91,405.8C915.89,410.3 905.26,412.51 893.85,412.51C882.44,412.51 871.55,410.3 861.53,405.8C851.51,401.3 842.88,395.3 835.57,387.71C828.25,380.12 822.42,371.21 818.15,361.06C813.88,350.82 811.7,339.97 811.7,328.49C811.7,317.01 813.88,306.16 818.15,295.92C822.42,285.68 828.26,276.86 835.57,269.27C842.89,261.68 851.6,255.68 861.53,251.18C871.55,246.68 882.27,244.47 893.85,244.47C905.43,244.47 915.89,246.68 925.91,251.18C935.93,255.68 944.56,261.68 951.96,269.36C959.36,277.04 965.2,285.95 969.47,296.01C973.74,306.16 975.92,316.93 975.92,328.4C975.92,339.87 973.74,350.73 969.47,360.79ZM2100.26,277.04C2093.9,261.15 2084.21,246.77 2071.5,233.88L2071.33,233.79C2045.45,207.67 2014.51,194.52 1978.63,194.52C1942.75,194.52 1911.54,207.58 1885.92,233.79C1860.3,259.91 1847.59,291.51 1847.59,328.57C1847.59,365.63 1860.4,397.14 1885.92,423.35C1911.54,449.47 1942.39,462.62 1978.63,462.62C2011.55,462.62 2040.04,451.77 2064.27,430.06C2068.96,425.12 2071.33,419.12 2071.33,412.14C2071.33,405.16 2069.07,398.99 2064.44,394.31C2059.83,389.63 2053.99,387.25 2047.02,387.25C2040.93,387.43 2035.52,389.46 2030.91,393.52C2023.59,399.87 2015.66,404.73 2007.04,407.91C1998.41,411.09 1989,412.68 1978.73,412.68C1969.66,412.68 1960.95,411.27 1952.68,408.36C1944.39,405.45 1936.65,401.47 1929.76,396.27C1922.78,391.06 1916.78,384.89 1911.64,377.56C1906.5,370.32 1902.58,362.29 1899.97,353.47L2085.29,353.47C2092.16,353.47 2097.91,351.09 2102.71,346.41C2107.51,341.73 2109.86,335.73 2109.86,328.58C2109.86,310.05 2106.62,292.84 2100.28,277.04L2100.26,277.04ZM1899.78,303.69C1902.31,294.95 1906.14,286.92 1911.28,279.6C1916.43,272.36 1922.52,266.1 1929.49,260.89C1936.55,255.68 1944.21,251.71 1952.66,248.8C1961.1,245.89 1969.72,244.48 1978.63,244.48C1987.54,244.48 1996.14,245.89 2004.49,248.8C2012.86,251.71 2020.54,255.68 2027.41,260.89C2034.39,266.1 2040.48,272.27 2045.62,279.6C2050.84,286.84 2054.78,294.87 2057.48,303.69L1899.77,303.69L1899.78,303.69ZM2327.99,211.29C2323.63,206.97 2318.14,203.61 2311.52,201.14C2304.9,198.67 2297.67,196.99 2289.74,196.02C2281.9,195.05 2274.49,194.61 2267.62,194.61C2252.01,194.61 2237.38,197.17 2223.62,202.29C2209.85,207.41 2197.13,214.73 2185.45,224.26L2185.45,219.5C2185.45,212.62 2183.1,206.79 2178.3,201.94C2173.52,197.09 2167.85,194.62 2161.15,194.62C2154.45,194.62 2148.51,197.09 2143.73,201.94C2138.93,206.79 2136.58,212.71 2136.58,219.5L2136.58,437.75C2136.58,444.63 2138.93,450.46 2143.73,455.31C2148.51,460.16 2154.26,462.63 2161.15,462.63C2168.04,462.63 2173.6,460.16 2178.3,455.31C2183.1,450.46 2185.45,444.54 2185.45,437.75L2185.45,328.58C2185.45,316.93 2187.63,305.99 2191.9,295.75C2196.17,285.51 2202.01,276.69 2209.41,269.1C2216.83,261.51 2225.54,255.51 2235.46,251.18C2245.48,246.77 2256.12,244.56 2267.54,244.56C2278.96,244.56 2289.74,246.59 2299.6,250.56C2303.51,252.33 2306.92,253.21 2309.88,253.21C2313.28,253.21 2316.5,252.59 2319.46,251.27C2322.42,249.95 2325.04,248.18 2327.22,245.89C2329.4,243.6 2331.13,240.95 2332.44,237.86C2333.75,234.86 2334.45,231.59 2334.45,228.06C2334.45,221.18 2332.27,215.62 2327.92,211.29L2328,211.29L2327.99,211.29ZM1304.98,277.12C1298.62,261.32 1289.12,246.85 1276.32,233.79C1250.45,207.67 1219.52,194.52 1183.62,194.52C1147.72,194.52 1116.54,207.58 1090.92,233.79C1065.3,259.91 1052.59,291.51 1052.59,328.57C1052.59,365.63 1065.4,397.14 1090.92,423.35C1116.54,449.47 1147.38,462.62 1183.62,462.62C1219.86,462.62 1250.36,449.56 1276.32,423.35C1301.94,397.49 1314.66,365.9 1314.66,328.57C1314.48,310.04 1311.26,292.92 1304.99,277.12L1304.98,277.12ZM1259.33,360.78L1259.33,360.96C1255.06,371.11 1249.22,380.02 1241.82,387.61C1234.42,395.29 1225.7,401.29 1215.77,405.79C1205.84,410.29 1195.12,412.5 1183.71,412.5C1172.3,412.5 1161.41,410.29 1151.39,405.79C1141.37,401.29 1132.74,395.29 1125.43,387.7C1118.11,380.11 1112.28,371.2 1108.01,361.05C1103.74,350.81 1101.56,339.96 1101.56,328.48C1101.56,317 1103.74,306.15 1108.01,295.91C1112.28,285.67 1118.12,276.85 1125.43,269.26C1132.75,261.67 1141.46,255.67 1151.39,251.17C1161.41,246.67 1172.13,244.46 1183.71,244.46C1195.29,244.46 1205.75,246.67 1215.77,251.17C1225.79,255.67 1234.42,261.67 1241.82,269.35C1249.22,277.03 1255.06,285.94 1259.33,296C1263.6,306.15 1265.78,316.92 1265.78,328.39C1265.78,339.86 1263.6,350.72 1259.33,360.78ZM1829.11,219.41C1829.11,216.06 1828.41,212.88 1827.11,209.88C1825.8,206.88 1824.06,204.15 1821.88,201.85C1819.7,199.56 1817.09,197.7 1814.13,196.47C1811.17,195.24 1807.95,194.53 1804.55,194.53C1799.67,194.53 1795.31,195.77 1791.48,198.33L1651.56,291.44L1651.56,104.68C1651.56,97.62 1649.21,91.71 1644.42,86.85C1639.63,82 1633.97,79.53 1627.26,79.53C1620.55,79.53 1614.63,82 1609.83,86.85C1605.04,91.7 1602.69,97.62 1602.69,104.68L1602.69,437.39C1602.69,444.27 1605.04,450.19 1609.83,455.13C1614.62,460.07 1620.37,462.54 1627.26,462.54C1634.15,462.54 1639.72,460.07 1644.42,455.13C1649.21,450.19 1651.56,444.27 1651.56,437.39L1651.56,350.99L1680.14,331.84L1788.26,456.01C1792.62,460.33 1798.11,462.45 1804.64,462.45C1808.04,462.45 1811.26,461.83 1814.22,460.51C1817.18,459.27 1819.8,457.42 1821.97,455.13C1824.15,452.84 1825.89,450.19 1827.2,447.1C1828.51,444.1 1829.2,440.83 1829.2,437.57C1829.2,431.04 1826.94,425.21 1822.4,420.1L1721.77,304.23L1819.78,239.1C1826.05,234.78 1829.1,228.16 1829.1,219.24L1829.1,219.42L1829.11,219.41ZM1414.85,269.09C1422.34,261.5 1431.06,255.5 1441.08,251.17C1451.1,246.76 1461.73,244.55 1473.14,244.55C1483.42,244.55 1492.92,246.32 1501.72,249.84C1510.43,253.37 1518.8,258.58 1526.72,265.37C1531.42,269.16 1536.74,271.1 1542.66,271.1C1549.72,271.1 1555.47,268.72 1560.09,263.95C1564.71,259.18 1566.97,253.18 1566.97,246.03C1566.97,238.88 1564.18,232.26 1558.52,227.15C1534.47,205.44 1505.99,194.58 1473.14,194.58C1436.98,194.58 1406.06,207.64 1380.44,233.85C1354.82,259.97 1342.11,291.57 1342.11,328.63C1342.11,365.69 1354.92,397.2 1380.44,423.41C1406.06,449.53 1436.9,462.68 1473.14,462.68C1505.9,462.68 1534.39,451.83 1558.52,430.11C1563.66,424.82 1566.28,418.73 1566.28,411.67C1566.28,404.61 1564.01,398.52 1559.4,393.84C1554.78,389.16 1548.95,386.78 1541.98,386.78C1536.06,386.96 1530.91,388.72 1526.56,392.07C1518.72,398.95 1510.53,404.07 1501.73,407.51C1493.02,410.95 1483.52,412.63 1473.15,412.63C1461.74,412.63 1451.11,410.42 1441.09,406.01C1431.07,401.6 1422.36,395.6 1414.86,388.1C1407.37,380.6 1401.44,371.6 1397.17,361.45C1392.9,351.21 1390.72,340.27 1390.72,328.62C1390.72,316.97 1392.9,306.03 1397.17,295.79C1401.44,285.55 1407.36,276.73 1414.86,269.14L1414.86,269.05L1414.85,269.09Z" style="fill:rgb(29,99,237);fill-rule:nonzero;"/>
</svg>
