<?xml version="1.0" encoding="UTF-8" standalone="no"?>
<!DOCTYPE svg PUBLIC "-//W3C//DTD SVG 1.1//EN" "http://www.w3.org/Graphics/SVG/1.1/DTD/svg11.dtd">
<svg width="100%" height="100%" viewBox="0 0 48 53" version="1.1" xmlns="http://www.w3.org/2000/svg" xmlns:xlink="http://www.w3.org/1999/xlink" xml:space="preserve" xmlns:serif="http://www.serif.com/" style="fill-rule:evenodd;clip-rule:evenodd;stroke-linecap:round;stroke-linejoin:round;">
    <g id="Artboard1" transform="matrix(1,0,0,1,-369.49,-211.72)">
        <rect x="369.49" y="211.72" width="47.298" height="52.654" style="fill:none;"/>
        <clipPath id="_clip1">
            <rect x="369.49" y="211.72" width="47.298" height="52.654"/>
        </clipPath>
        <g clip-path="url(#_clip1)">
            <g id="example-access-patterns-v4changes_1" transform="matrix(1,0,0,1,0.490354,0.719857)">
                <g id="example-access-patterns-v4changes_1_Layer_1">
                    <g id="Graphic_2859">
                        <path d="M12,0L998,0C1001.31,0 1004,2.686 1004,6L1004,523.685C1004,526.999 1001.31,529.685 998,529.685L12,529.685C8.686,529.685 6,526.999 6,523.685L6,6C6,2.686 8.686,0 12,0Z" style="fill:rgb(241,243,244);fill-rule:nonzero;"/>
                        <clipPath id="_clip2">
                            <path d="M12,0L998,0C1001.31,0 1004,2.686 1004,6L1004,523.685C1004,526.999 1001.31,529.685 998,529.685L12,529.685C8.686,529.685 6,526.999 6,523.685L6,6C6,2.686 8.686,0 12,0Z"/>
                        </clipPath>
                        <g clip-path="url(#_clip2)">
                            <path d="M12,0L998,0C1001.31,0 1004,2.686 1004,6L1004,523.685C1004,526.999 1001.31,529.685 998,529.685L12,529.685C8.686,529.685 6,526.999 6,523.685L6,6C6,2.686 8.686,0 12,0Z" style="fill:none;fill-rule:nonzero;stroke:rgb(31,33,36);stroke-width:2px;"/>
                        </g>
                    </g>
                    <g id="Graphic_2858">
                    </g>
                    <g id="Graphic_2857">
                    </g>
                    <g id="Graphic_2856">
                    </g>
                    <g id="Graphic_2855">
                    </g>
                    <g id="Graphic_2852">
                    </g>
                    <g id="Graphic_2851">
                    </g>
                    <g id="Graphic_2847">
                    </g>
                    <g id="Graphic_2846">
                    </g>
                    <g id="Graphic_2845">
                    </g>
                    <g id="Graphic_2844">
                    </g>
                    <g id="Graphic_2843">
                    </g>
                    <g id="Graphic_2842">
                    </g>
                    <g id="Graphic_2841">
                    </g>
                    <g id="Graphic_2840">
                    </g>
                    <g id="Graphic_2839">
                    </g>
                    <g id="Graphic_2838">
                    </g>
                    <g id="Graphic_2837">
                    </g>
                    <g id="Graphic_2836">
                    </g>
                    <g id="Graphic_2835">
                    </g>
                    <g id="Graphic_2834">
                    </g>
                    <g id="Graphic_2833">
                    </g>
                    <g id="Graphic_2832">
                    </g>
                    <g id="Graphic_2831">
                    </g>
                    <g id="Graphic_2828">
                    </g>
                    <g id="Graphic_2827">
                    </g>
                    <g id="Graphic_2825">
                        <path d="M351,159.685L983,159.685C986.314,159.685 989,162.372 989,165.685L989,281.185C989,284.499 986.314,287.185 983,287.185L351,287.185C347.686,287.185 345,284.499 345,281.185L345,165.685C345,162.372 347.686,159.685 351,159.685Z" style="fill:rgb(199,236,213);fill-rule:nonzero;"/>
                        <clipPath id="_clip3">
                            <path d="M351,159.685L983,159.685C986.314,159.685 989,162.372 989,165.685L989,281.185C989,284.499 986.314,287.185 983,287.185L351,287.185C347.686,287.185 345,284.499 345,281.185L345,165.685C345,162.372 347.686,159.685 351,159.685Z"/>
                        </clipPath>
                        <g clip-path="url(#_clip3)">
                            <path d="M351,159.685L983,159.685C986.314,159.685 989,162.372 989,165.685L989,281.185C989,284.499 986.314,287.185 983,287.185L351,287.185C347.686,287.185 345,284.499 345,281.185L345,165.685C345,162.372 347.686,159.685 351,159.685Z" style="fill:none;fill-rule:nonzero;stroke:rgb(31,33,36);stroke-width:2px;"/>
                        </g>
                    </g>
                    <g id="Graphic_2824">
                    </g>
                    <g id="Graphic_2823">
                    </g>
                    <g id="Graphic_2821">
                    </g>
                    <g id="Graphic_2819">
                    </g>
                    <g id="Graphic_2818">
                    </g>
                    <g id="Graphic_2817">
                    </g>
                    <g id="Graphic_2816">
                    </g>
                    <g id="Graphic_2815">
                    </g>
                    <g id="Graphic_2814">
                    </g>
                    <g id="Graphic_2813">
                    </g>
                    <g id="Graphic_2812">
                    </g>
                    <g id="Graphic_2811">
                    </g>
                    <g id="Graphic_2808">
                    </g>
                    <g id="Graphic_2807">
                    </g>
                    <g id="Graphic_2806">
                    </g>
                    <g id="Graphic_2805">
                    </g>
                    <g id="Graphic_2804">
                    </g>
                    <g id="Graphic_2803">
                    </g>
                    <g id="Graphic_2802">
                    </g>
                    <g id="Graphic_2801">
                    </g>
                    <g id="Graphic_2800">
                    </g>
                    <g id="Graphic_2799">
                    </g>
                    <g id="Graphic_2798">
                    </g>
                    <g id="Graphic_2797">
                    </g>
                    <g id="Graphic_2796">
                    </g>
                    <g id="Graphic_2795">
                    </g>
                    <g id="Graphic_2794">
                    </g>
                    <g id="Graphic_2793">
                    </g>
                    <g id="Graphic_2792">
                    </g>
                    <g id="Graphic_2791">
                    </g>
                    <g id="Graphic_2788">
                    </g>
                    <g id="Graphic_2787">
                    </g>
                    <g id="Graphic_2785">
                        <path d="M366,202.185L489,202.185C492.314,202.185 495,204.872 495,208.185L495,266.185C495,269.499 492.314,272.185 489,272.185L366,272.185C362.686,272.185 360,269.499 360,266.185L360,208.185C360,204.872 362.686,202.185 366,202.185Z" style="fill:white;fill-rule:nonzero;"/>
                        <clipPath id="_clip4">
                            <path d="M366,202.185L489,202.185C492.314,202.185 495,204.872 495,208.185L495,266.185C495,269.499 492.314,272.185 489,272.185L366,272.185C362.686,272.185 360,269.499 360,266.185L360,208.185C360,204.872 362.686,202.185 366,202.185Z"/>
                        </clipPath>
                        <g clip-path="url(#_clip4)">
                            <path d="M366,202.185L489,202.185C492.314,202.185 495,204.872 495,208.185L495,266.185C495,269.499 492.314,272.185 489,272.185L366,272.185C362.686,272.185 360,269.499 360,266.185L360,208.185C360,204.872 362.686,202.185 366,202.185Z" style="fill:none;fill-rule:nonzero;stroke:rgb(31,33,36);stroke-width:4px;"/>
                        </g>
                    </g>
                    <g id="Graphic_2784">
                        <rect x="389.25" y="231.935" width="10.5" height="10.5" style="fill:rgb(174,203,250);"/>
                    </g>
                    <g id="Graphic_2783">
                        <rect x="392.75" y="219.685" width="3.5" height="7" style="fill:rgb(102,157,246);"/>
                    </g>
                    <g id="Graphic_2782">
                        <rect x="385.75" y="219.685" width="3.5" height="7" style="fill:rgb(102,157,246);"/>
                    </g>
                    <g id="Graphic_2781">
                        <rect x="399.75" y="219.685" width="3.5" height="7" style="fill:rgb(102,157,246);"/>
                    </g>
                    <g id="Graphic_2780">
                        <rect x="392.75" y="247.685" width="3.5" height="7" style="fill:rgb(66,133,244);"/>
                    </g>
                    <g id="Graphic_2779">
                        <rect x="385.75" y="247.685" width="3.5" height="7" style="fill:rgb(66,133,244);"/>
                    </g>
                    <g id="Graphic_2778">
                        <rect x="399.75" y="247.685" width="3.5" height="7" style="fill:rgb(66,133,244);"/>
                    </g>
                    <g id="Graphic_2777">
                        <rect x="405" y="235.435" width="7" height="3.5" style="fill:rgb(66,133,244);"/>
                    </g>
                    <g id="Graphic_2776">
                        <rect x="405" y="242.435" width="7" height="3.5" style="fill:rgb(66,133,244);"/>
                    </g>
                    <g id="Graphic_2775">
                        <rect x="405" y="228.435" width="7" height="3.5" style="fill:rgb(66,133,244);"/>
                    </g>
                    <g id="Graphic_2774">
                        <rect x="377" y="235.435" width="7" height="3.5" style="fill:rgb(102,157,246);"/>
                    </g>
                    <g id="Graphic_2773">
                        <rect x="377" y="242.435" width="7" height="3.5" style="fill:rgb(102,157,246);"/>
                    </g>
                    <g id="Graphic_2772">
                        <rect x="377" y="228.435" width="7" height="3.5" style="fill:rgb(102,157,246);"/>
                    </g>
                    <g id="Graphic_2771">
                        <path d="M382.25,224.935L382.25,249.435L406.75,249.435L406.75,224.935L382.25,224.935ZM403.25,245.935L385.75,245.935L385.75,228.435L403.25,228.435L403.25,245.935Z" style="fill:rgb(174,203,250);fill-rule:nonzero;"/>
                    </g>
                    <g id="Graphic_2770">
                        <path d="M389.25,242.435L399.75,242.435L394.5,237.185L389.25,242.435Z" style="fill:rgb(102,157,246);fill-rule:nonzero;"/>
                    </g>
                    <g id="Graphic_2769">
                        <path d="M394.5,237.185L399.75,242.435L399.75,231.935L394.5,237.185Z" style="fill:rgb(66,133,244);fill-rule:nonzero;"/>
                    </g>
                    <g id="Graphic_2766">
                    </g>
                    <g id="Graphic_2765">
                    </g>
                    <g id="Graphic_2764">
                    </g>
                    <g id="Graphic_2763">
                    </g>
                    <g id="Graphic_2762">
                    </g>
                    <g id="Graphic_2761">
                    </g>
                    <g id="Graphic_2760">
                    </g>
                    <g id="Graphic_2758">
                    </g>
                    <g id="Graphic_2757">
                    </g>
                    <g id="Graphic_2755">
                    </g>
                    <g id="Graphic_2754">
                    </g>
                    <g id="Graphic_2753">
                    </g>
                    <g id="Graphic_2750">
                    </g>
                    <g id="Graphic_2749">
                    </g>
                    <g id="Graphic_2748">
                    </g>
                    <g id="Graphic_2747">
                    </g>
                    <g id="Graphic_2746">
                    </g>
                    <g id="Graphic_2744">
                    </g>
                    <g id="Graphic_2743">
                    </g>
                    <g id="Graphic_2741">
                    </g>
                    <g id="Graphic_2740">
                    </g>
                    <g id="Graphic_2738">
                    </g>
                    <g id="Graphic_2737">
                    </g>
                    <g id="Graphic_2735">
                    </g>
                    <g id="Graphic_2734">
                    </g>
                    <g id="Graphic_2732">
                    </g>
                    <g id="Graphic_2731">
                    </g>
                    <g id="Graphic_2728">
                    </g>
                    <g id="Graphic_2727">
                    </g>
                    <g id="Graphic_2725">
                    </g>
                    <g id="Graphic_2724">
                    </g>
                    <g id="Graphic_2723">
                    </g>
                    <g id="Graphic_2722">
                    </g>
                    <g id="Graphic_2721">
                    </g>
                    <g id="Graphic_2720">
                    </g>
                    <g id="Graphic_2719">
                    </g>
                    <g id="Graphic_2718">
                    </g>
                    <g id="Line_2713">
                    </g>
                    <g id="Line_2712">
                    </g>
                    <g id="Group_2871">
                    </g>
                    <g id="Group_2881">
                    </g>
                    <g id="Group_2900">
                    </g>
                    <g id="Group_2923">
                    </g>
                    <g id="Group_2943">
                    </g>
                    <g id="Group_2959">
                    </g>
                    <g id="Group_2982">
                    </g>
                    <g id="Group_3002">
                    </g>
                    <g id="Group_3009">
                    </g>
                    <g id="Group_3020">
                    </g>
                    <g id="Group_3032">
                    </g>
                    <g id="Group_3040">
                    </g>
                    <g id="Group_3044">
                    </g>
                    <g id="Group_3051">
                    </g>
                    <g id="Group_3065">
                    </g>
                    <g id="Group_3073">
                    </g>
                    <g id="Group_3081">
                    </g>
                    <g id="Group_3111">
                    </g>
                    <g id="Group_3130">
                    </g>
                    <g id="Group_3135">
                    </g>
                    <g id="Group_3143">
                    </g>
                    <g id="Group_3147">
                    </g>
                    <g id="Group_3169">
                    </g>
                </g>
            </g>
        </g>
    </g>
</svg>
