<?xml version="1.0" encoding="UTF-8" standalone="no"?>
<!DOCTYPE svg PUBLIC "-//W3C//DTD SVG 1.1//EN" "http://www.w3.org/Graphics/SVG/1.1/DTD/svg11.dtd">
<svg width="100%" height="100%" viewBox="0 0 4146 4056" version="1.1" xmlns="http://www.w3.org/2000/svg" xmlns:xlink="http://www.w3.org/1999/xlink" xml:space="preserve" xmlns:serif="http://www.serif.com/" style="fill-rule:evenodd;clip-rule:evenodd;stroke-linecap:round;stroke-linejoin:round;">
    <g transform="matrix(1,0,0,1,-15582,-20957)">
        <g id="GCE-Compute-Icon-Artboard" serif:id="GCE Compute Icon Artboard" transform="matrix(0.828708,0,0,0.928626,2668.49,1495.22)">
            <rect x="15582.7" y="20957.6" width="5002.6" height="4367.62" style="fill:none;"/>
            <clipPath id="_clip1">
                <rect x="15582.7" y="20957.6" width="5002.6" height="4367.62"/>
            </clipPath>
            <g clip-path="url(#_clip1)">
                <g id="GCE-Compute-icon" serif:id="GCE Compute icon" transform="matrix(129.816,0,0,115.848,15515.6,20823.9)">
                    <rect x="0.621" y="0.607" width="38.689" height="38.141" style="fill:none;"/>
                    <clipPath id="_clip2">
                        <rect x="0.621" y="0.607" width="38.689" height="38.141"/>
                    </clipPath>
                    <g clip-path="url(#_clip2)">
                        <g transform="matrix(1,0,0,1,-374.773,-217.267)">
                            <g id="GCE-Compute-icon1" serif:id="GCE Compute icon">
                                <g id="GCE-Compute-icon2" serif:id="GCE Compute icon">
                                    <g id="example-access-patterns-v4changes_1">
                                        <g id="example-access-patterns-v4changes_1_Layer_1">
                                            <g id="Graphic_2859">
                                                <path d="M12,0L998,0C1001.31,0 1004,2.686 1004,6L1004,523.685C1004,526.999 1001.31,529.685 998,529.685L12,529.685C8.686,529.685 6,526.999 6,523.685L6,6C6,2.686 8.686,0 12,0Z" style="fill:rgb(241,243,244);fill-rule:nonzero;"/>
                                                <g>
                                                    <clipPath id="_clip3">
                                                        <path d="M12,0L998,0C1001.31,0 1004,2.686 1004,6L1004,523.685C1004,526.999 1001.31,529.685 998,529.685L12,529.685C8.686,529.685 6,526.999 6,523.685L6,6C6,2.686 8.686,0 12,0Z"/>
                                                    </clipPath>
                                                    <g clip-path="url(#_clip3)">
                                                        <path d="M12,0L998,0C1001.31,0 1004,2.686 1004,6L1004,523.685C1004,526.999 1001.31,529.685 998,529.685L12,529.685C8.686,529.685 6,526.999 6,523.685L6,6C6,2.686 8.686,0 12,0Z" style="fill:none;fill-rule:nonzero;stroke:rgb(31,33,36);stroke-width:2px;"/>
                                                    </g>
                                                </g>
                                            </g>
                                            <g id="Graphic_2825">
                                                <path d="M351,159.685L983,159.685C986.314,159.685 989,162.372 989,165.685L989,281.185C989,284.499 986.314,287.185 983,287.185L351,287.185C347.686,287.185 345,284.499 345,281.185L345,165.685C345,162.372 347.686,159.685 351,159.685Z" style="fill:rgb(199,236,213);fill-rule:nonzero;"/>
                                                <g>
                                                    <clipPath id="_clip4">
                                                        <path d="M351,159.685L983,159.685C986.314,159.685 989,162.372 989,165.685L989,281.185C989,284.499 986.314,287.185 983,287.185L351,287.185C347.686,287.185 345,284.499 345,281.185L345,165.685C345,162.372 347.686,159.685 351,159.685Z"/>
                                                    </clipPath>
                                                    <g clip-path="url(#_clip4)">
                                                        <path d="M351,159.685L983,159.685C986.314,159.685 989,162.372 989,165.685L989,281.185C989,284.499 986.314,287.185 983,287.185L351,287.185C347.686,287.185 345,284.499 345,281.185L345,165.685C345,162.372 347.686,159.685 351,159.685Z" style="fill:none;fill-rule:nonzero;stroke:rgb(31,33,36);stroke-width:2px;"/>
                                                    </g>
                                                </g>
                                            </g>
                                            <g id="Graphic_2785">
                                                <path d="M366,202.185L489,202.185C492.314,202.185 495,204.872 495,208.185L495,266.185C495,269.499 492.314,272.185 489,272.185L366,272.185C362.686,272.185 360,269.499 360,266.185L360,208.185C360,204.872 362.686,202.185 366,202.185Z" style="fill:white;fill-rule:nonzero;"/>
                                                <g>
                                                    <clipPath id="_clip5">
                                                        <path d="M366,202.185L489,202.185C492.314,202.185 495,204.872 495,208.185L495,266.185C495,269.499 492.314,272.185 489,272.185L366,272.185C362.686,272.185 360,269.499 360,266.185L360,208.185C360,204.872 362.686,202.185 366,202.185Z"/>
                                                    </clipPath>
                                                    <g clip-path="url(#_clip5)">
                                                        <path d="M366,202.185L489,202.185C492.314,202.185 495,204.872 495,208.185L495,266.185C495,269.499 492.314,272.185 489,272.185L366,272.185C362.686,272.185 360,269.499 360,266.185L360,208.185C360,204.872 362.686,202.185 366,202.185Z" style="fill:none;fill-rule:nonzero;stroke:rgb(31,33,36);stroke-width:4px;"/>
                                                    </g>
                                                </g>
                                            </g>
                                            <g id="Graphic_2784">
                                                <rect x="389.25" y="231.935" width="10.5" height="10.5" style="fill:rgb(174,203,250);"/>
                                            </g>
                                            <g id="Graphic_2783">
                                                <rect x="392.75" y="219.685" width="3.5" height="7" style="fill:rgb(102,157,246);"/>
                                            </g>
                                            <g id="Graphic_2782">
                                                <rect x="385.75" y="219.685" width="3.5" height="7" style="fill:rgb(102,157,246);"/>
                                            </g>
                                            <g id="Graphic_2781">
                                                <rect x="399.75" y="219.685" width="3.5" height="7" style="fill:rgb(102,157,246);"/>
                                            </g>
                                            <g id="Graphic_2780">
                                                <rect x="392.75" y="247.685" width="3.5" height="7" style="fill:rgb(66,133,244);"/>
                                            </g>
                                            <g id="Graphic_2779">
                                                <rect x="385.75" y="247.685" width="3.5" height="7" style="fill:rgb(66,133,244);"/>
                                            </g>
                                            <g id="Graphic_2778">
                                                <rect x="399.75" y="247.685" width="3.5" height="7" style="fill:rgb(66,133,244);"/>
                                            </g>
                                            <g id="Graphic_2777">
                                                <rect x="405" y="235.435" width="7" height="3.5" style="fill:rgb(66,133,244);"/>
                                            </g>
                                            <g id="Graphic_2776">
                                                <rect x="405" y="242.435" width="7" height="3.5" style="fill:rgb(66,133,244);"/>
                                            </g>
                                            <g id="Graphic_2775">
                                                <rect x="405" y="228.435" width="7" height="3.5" style="fill:rgb(66,133,244);"/>
                                            </g>
                                            <g id="Graphic_2774">
                                                <rect x="377" y="235.435" width="7" height="3.5" style="fill:rgb(102,157,246);"/>
                                            </g>
                                            <g id="Graphic_2773">
                                                <rect x="377" y="242.435" width="7" height="3.5" style="fill:rgb(102,157,246);"/>
                                            </g>
                                            <g id="Graphic_2772">
                                                <rect x="377" y="228.435" width="7" height="3.5" style="fill:rgb(102,157,246);"/>
                                            </g>
                                            <g id="Graphic_2771">
                                                <path d="M382.25,224.935L382.25,249.435L406.75,249.435L406.75,224.935L382.25,224.935ZM403.25,245.935L385.75,245.935L385.75,228.435L403.25,228.435L403.25,245.935Z" style="fill:rgb(174,203,250);fill-rule:nonzero;"/>
                                            </g>
                                            <g id="Graphic_2770">
                                                <path d="M389.25,242.435L399.75,242.435L394.5,237.185L389.25,242.435Z" style="fill:rgb(102,157,246);fill-rule:nonzero;"/>
                                            </g>
                                            <g id="Graphic_2769">
                                                <path d="M394.5,237.185L399.75,242.435L399.75,231.935L394.5,237.185Z" style="fill:rgb(66,133,244);fill-rule:nonzero;"/>
                                            </g>
                                        </g>
                                    </g>
                                </g>
                            </g>
                        </g>
                    </g>
                </g>
            </g>
        </g>
    </g>
</svg>
