<?xml version="1.0" encoding="UTF-8" standalone="no"?>
<!DOCTYPE svg PUBLIC "-//W3C//DTD SVG 1.1//EN" "http://www.w3.org/Graphics/SVG/1.1/DTD/svg11.dtd">
<svg width="100%" height="100%" viewBox="0 0 8064 8432" version="1.1" xmlns="http://www.w3.org/2000/svg" xmlns:xlink="http://www.w3.org/1999/xlink" xml:space="preserve" xmlns:serif="http://www.serif.com/" style="fill-rule:evenodd;clip-rule:evenodd;stroke-linejoin:round;stroke-miterlimit:2;">
    <g transform="matrix(1,0,0,1,-8393.23,-9116.9)">
        <g id="JSON-export" serif:id="JSON export" transform="matrix(1,0,0,1,17249.8,8776.4)">
            <rect x="-8856.61" y="340.502" width="8063.44" height="8431.21" style="fill:none;"/>
            <clipPath id="_clip1">
                <rect x="-8856.61" y="340.502" width="8063.44" height="8431.21"/>
            </clipPath>
            <g clip-path="url(#_clip1)">
                <g transform="matrix(16.3803,0,0,16.3803,-8807.2,399.964)">
                    <path d="M84.68,237.33L375.8,237.33L375.8,155.47L289.78,155.47C280.76,155.47 268.16,150.59 262.22,144.64C256.27,138.69 252.62,127.96 252.62,118.94L252.62,31.81L33.92,31.81C33.15,31.81 32.58,32.2 32.2,32.58C31.62,32.96 31.43,33.54 31.43,34.31L31.43,477.54C31.43,478.12 31.81,478.88 32.2,479.27C32.58,479.84 33.35,480.04 33.92,480.04L373.31,480.04C374.07,480.04 374.03,479.65 374.41,479.27C374.99,478.88 375.8,478.12 375.8,477.54L375.8,431.08L84.68,431.08C67.43,431.08 53.21,416.92 53.21,399.61L53.21,268.79C53.21,251.48 67.37,237.33 84.68,237.33ZM407.18,237.33L448.54,237.33C465.84,237.33 480,251.53 480,268.79L480,399.61C480,416.87 465.8,431.08 448.54,431.08L407.18,431.08L407.18,487.48C407.18,494.2 404.49,500.14 400.08,504.56C395.67,508.97 389.72,511.65 383.01,511.65L24.17,511.65C17.46,511.65 11.51,508.97 7.1,504.56C2.69,500.14 0,494.2 0,487.48L0,24.37C0,17.65 2.69,11.7 7.1,7.29C11.51,2.88 17.65,0.19 24.17,0.19L268.66,0.19C269.24,0 269.82,0 270.39,0C273.08,0 275.76,1.15 277.68,2.88L278.06,2.88C278.45,3.07 278.64,3.26 279.02,3.65L403.92,130.08C406.03,132.18 407.56,135.06 407.56,138.32C407.56,139.28 407.37,140.05 407.18,141.01L407.18,237.33ZM281.13,116.45L281.13,37.22L370.35,127.58L292.26,127.58C289.19,127.58 286.51,126.24 284.4,124.32C282.48,122.4 281.13,119.52 281.13,116.45Z" style="fill:rgb(11,150,224);"/>
                </g>
                <g transform="matrix(1.0398,0,0,0.746576,-17854.1,-1489.56)">
                    <path d="M10708.8,8925.27L11129.7,8925.27L11129.7,9954.32C11129.7,10170.4 11116,10334.8 11088.5,10447.5C11061,10560.3 11005.7,10655.8 10922.5,10734.2C10839.4,10812.5 10732.9,10851.7 10603.2,10851.7C10466,10851.7 10359.7,10825.9 10284.3,10774.2C10208.9,10722.6 10150.6,10647 10109.5,10547.6C10068.4,10448.2 10044.1,10325.3 10036.7,10179L10438.1,10102.8C10438.8,10186.3 10444,10248.3 10453.9,10288.7C10463.8,10329.2 10480.5,10361.9 10504,10386.9C10520,10403.2 10542.9,10411.4 10572.6,10411.4C10619.5,10411.4 10654,10387.1 10675.9,10338.4C10697.9,10289.8 10708.8,10207.8 10708.8,10092.5L10708.8,8925.27Z" style="fill:white;fill-rule:nonzero;"/>
                    <path d="M11336.5,10191.9L11736,10157C11744.7,10247.4 11762.3,10316.3 11788.9,10363.6C11832.1,10440.2 11893.9,10478.5 11974.3,10478.5C12034.2,10478.5 12080.4,10458.9 12112.9,10419.8C12145.3,10380.6 12161.5,10335.2 12161.5,10283.6C12161.5,10234.5 12146.1,10190.6 12115.2,10151.9C12084.3,10113.1 12012.6,10076.5 11900.1,10042.1C11715.9,9984.45 11584.6,9907.84 11506.1,9812.29C11427,9716.75 11387.4,9594.95 11387.4,9446.9C11387.4,9349.63 11407.7,9257.74 11448.2,9171.23C11488.6,9084.73 11549.5,9016.72 11630.8,8967.23C11712.1,8917.74 11823.5,8892.99 11965,8892.99C12138.7,8892.99 12271.1,8937.96 12362.2,9027.91C12453.4,9117.86 12507.6,9260.97 12524.9,9457.22L12129.1,9489.5C12118.6,9404.29 12096.5,9342.31 12062.8,9303.58C12029.1,9264.84 11982.6,9245.47 11923.3,9245.47C11874.5,9245.47 11837.7,9259.89 11813,9288.73C11788.2,9317.56 11775.9,9352.64 11775.9,9393.96C11775.9,9424.08 11786.1,9451.2 11806.5,9475.3C11826.2,9500.26 11873.2,9523.5 11947.4,9545.02C12130.9,9600.11 12262.4,9655.85 12341.8,9712.23C12421.3,9768.61 12479,9838.55 12515.2,9922.04C12551.3,10005.5 12569.4,10098.9 12569.4,10202.2C12569.4,10323.6 12545.3,10435.5 12497.1,10537.9C12448.9,10640.4 12381.5,10718 12295,10771C12208.5,10823.9 12099.4,10850.4 11967.8,10850.4C11736.6,10850.4 11576.6,10788.4 11487.6,10664.5C11398.6,10540.5 11348.2,10383 11336.5,10191.9Z" style="fill:white;fill-rule:nonzero;"/>
                    <path d="M12728,9872.98C12728,9563.96 12789.8,9323.37 12913.4,9151.22C13037,8979.07 13209.1,8892.99 13429.7,8892.99C13655.9,8892.99 13830.2,8977.56 13952.6,9146.7C14075,9315.84 14136.1,9552.77 14136.1,9857.48C14136.1,10078.7 14109.4,10260.1 14055.9,10401.7C14002.5,10543.3 13925.2,10653.5 13824.2,10732.2C13723.1,10811 13597.2,10850.4 13446.4,10850.4C13293.1,10850.4 13166.3,10816.4 13065.9,10748.4C12965.4,10680.4 12884,10572.8 12821.6,10425.6C12759.2,10278.4 12728,10094.2 12728,9872.98ZM13147.9,9875.56C13147.9,10066.6 13173.4,10203.9 13224.4,10287.4C13275.4,10370.9 13344.7,10412.7 13432.5,10412.7C13522.7,10412.7 13592.6,10371.8 13642,10290C13691.5,10208.2 13716.2,10061.5 13716.2,9849.74C13716.2,9671.56 13690.4,9541.36 13638.8,9459.16C13587.2,9376.96 13517.2,9335.85 13428.8,9335.85C13344.1,9335.85 13276.1,9377.6 13224.8,9461.1C13173.6,9544.59 13147.9,9682.75 13147.9,9875.56Z" style="fill:white;fill-rule:nonzero;"/>
                    <path d="M14365.1,8925.27L14757.3,8925.27L15269,9972.4L15269,8925.27L15664.8,8925.27L15664.8,10818.1L15269,10818.1L14760,9778.72L14760,10818.1L14365.1,10818.1L14365.1,8925.27Z" style="fill:white;fill-rule:nonzero;"/>
                </g>
            </g>
        </g>
    </g>
</svg>
