<?xml version="1.0" encoding="UTF-8" standalone="no"?>
<!DOCTYPE svg PUBLIC "-//W3C//DTD SVG 1.1//EN" "http://www.w3.org/Graphics/SVG/1.1/DTD/svg11.dtd">
<svg width="100%" height="100%" viewBox="0 0 48 48" version="1.1" xmlns="http://www.w3.org/2000/svg" xmlns:xlink="http://www.w3.org/1999/xlink" xml:space="preserve" xmlns:serif="http://www.serif.com/" style="fill-rule:evenodd;clip-rule:evenodd;stroke-linecap:round;stroke-linejoin:round;">
    <g transform="matrix(1.0526,0,0,1.2857,-1.2632,-13.429)">
        <g id="layer6">
            <g id="g2033">
                <g id="g3712" opacity="0.4">
                    <rect id="rect2801" x="38" y="40" width="5" height="7" style="fill:url(#_Radial1);"/>
                    <g id="rect3696" transform="matrix(-1,0,0,-1,0,0)">
                        <rect x="-10" y="-47" width="5" height="7" style="fill:url(#_Radial2);"/>
                    </g>
                    <rect id="rect3700" x="10" y="40" width="28" height="7" style="fill:url(#_Linear3);"/>
                </g>
            </g>
        </g>
    </g>
    <g id="layer1">
        <path id="rect15391" d="M7.753,3.646L31.2,3.631C31.2,3.631 41.479,13.175 41.479,13.811L41.479,43.418C41.479,44.054 40.966,44.567 40.33,44.567L7.753,44.567C7.116,44.567 6.603,44.054 6.603,43.418L6.603,4.796C6.603,4.159 7.116,3.646 7.752,3.646L7.753,3.646Z" style="fill:url(#_Radial4);fill-rule:nonzero;stroke:url(#_Radial5);stroke-width:1px;"/>
        <path id="rect15660" d="M7.815,4.584L32.691,4.584C32.691,4.584 40.442,12.605 40.442,12.688L40.442,43.381C40.442,43.464 40.375,43.53 40.293,43.53L7.815,43.53C7.733,43.53 7.666,43.464 7.666,43.381L7.666,4.733C7.666,4.65 7.733,4.584 7.815,4.584L7.815,4.584Z" style="fill:none;fill-rule:nonzero;stroke:url(#_Radial6);stroke-width:1px;"/>
    </g>
    <g id="layer5">
        <path id="path5348" d="M40.985,13.861C40.257,12.515 34.882,10.131 32.085,9.331C32.254,10.904 31.962,15.649 31.962,15.649C34.024,14.274 40.204,13.699 40.985,13.861Z" style="fill:url(#_Radial7);"/>
        <path id="path2210" d="M41.411,13.739C41.424,12.324 35.058,3.532 31.175,3.635C32.148,3.869 32.926,9.804 31.536,12.616C34.286,12.616 40.447,11.881 41.411,13.739Z" style="fill:url(#_Radial8);fill-rule:nonzero;stroke:url(#_Radial9);stroke-width:1px;stroke-linecap:butt;"/>
        <path id="path2247" d="M39.122,11.586C38.393,10.24 34.963,6.517 33.04,5.28C33.279,6.706 33.577,8.962 32.962,11.524C32.962,11.524 38.341,11.424 39.122,11.586Z" style="fill:none;fill-rule:nonzero;stroke:url(#_Linear10);stroke-width:1px;stroke-linecap:butt;stroke-linejoin:miter;"/>
        <g id="g5535" transform="matrix(1,0,0,1,60,0)">
            <path id="rect4819" d="M-32.228,9.531C-32.228,9.273 -32.438,9.063 -32.697,9.063L-48.531,9.063C-48.79,9.063 -49,9.273 -49,9.531C-49,9.79 -48.79,10 -48.531,10L-32.697,10C-32.438,10 -32.228,9.79 -32.228,9.531Z" style="fill:rgb(141,141,141);fill-opacity:0.51;"/>
            <path id="rect4821" d="M-32.228,11.531C-32.228,11.272 -32.438,11.062 -32.697,11.062L-48.531,11.062C-48.79,11.062 -49,11.272 -49,11.531C-49,11.789 -48.79,12 -48.531,12L-32.697,12C-32.438,12 -32.228,11.789 -32.228,11.531Z" style="fill:rgb(141,141,141);fill-opacity:0.51;"/>
            <path id="rect4823" d="M-32.228,13.469C-32.228,13.21 -32.438,13 -32.697,13L-48.531,13C-48.79,13 -49,13.21 -49,13.469C-49,13.727 -48.79,13.938 -48.531,13.938L-32.697,13.938C-32.438,13.938 -32.228,13.727 -32.228,13.469Z" style="fill:rgb(141,141,141);fill-opacity:0.51;"/>
            <path id="rect4825" d="M-32.228,15.594C-32.228,15.335 -32.438,15.125 -32.697,15.125L-48.531,15.125C-48.79,15.125 -49,15.335 -49,15.594C-49,15.852 -48.79,16.063 -48.531,16.063L-32.697,16.063C-32.438,16.063 -32.228,15.852 -32.228,15.594Z" style="fill:rgb(141,141,141);fill-opacity:0.51;"/>
            <path id="rect4827" d="M-22.875,19.531C-22.875,19.272 -23.085,19.062 -23.344,19.062L-48.531,19.062C-48.79,19.062 -49,19.272 -49,19.531C-49,19.789 -48.79,20 -48.531,20L-23.344,20C-23.085,20 -22.875,19.789 -22.875,19.531Z" style="fill:rgb(141,141,141);fill-opacity:0.51;"/>
            <path id="rect4831" d="M-22.875,21.531C-22.875,21.272 -23.085,21.062 -23.344,21.062L-48.531,21.062C-48.79,21.062 -49,21.272 -49,21.531C-49,21.789 -48.79,22 -48.531,22L-23.344,22C-23.085,22 -22.875,21.789 -22.875,21.531Z" style="fill:rgb(141,141,141);fill-opacity:0.51;"/>
            <path id="rect4833" d="M-22.875,23.531C-22.875,23.272 -23.085,23.062 -23.344,23.062L-48.531,23.062C-48.79,23.062 -49,23.272 -49,23.531C-49,23.789 -48.79,24 -48.531,24L-23.344,24C-23.085,24 -22.875,23.789 -22.875,23.531Z" style="fill:rgb(141,141,141);fill-opacity:0.51;"/>
            <path id="rect4835" d="M-22.875,25.531C-22.875,25.272 -23.085,25.062 -23.344,25.062L-48.531,25.062C-48.79,25.062 -49,25.272 -49,25.531C-49,25.789 -48.79,26 -48.531,26L-23.344,26C-23.085,26 -22.875,25.789 -22.875,25.531Z" style="fill:rgb(141,141,141);fill-opacity:0.51;"/>
            <path id="rect4837" d="M-22.875,27.531C-22.875,27.272 -23.085,27.062 -23.344,27.062L-48.531,27.062C-48.79,27.062 -49,27.272 -49,27.531C-49,27.789 -48.79,28 -48.531,28L-23.344,28C-23.085,28 -22.875,27.789 -22.875,27.531Z" style="fill:rgb(141,141,141);fill-opacity:0.51;"/>
            <path id="rect4839" d="M-22.875,29.531C-22.875,29.272 -23.085,29.062 -23.344,29.062L-48.531,29.062C-48.79,29.062 -49,29.272 -49,29.531C-49,29.789 -48.79,30 -48.531,30L-23.344,30C-23.085,30 -22.875,29.789 -22.875,29.531Z" style="fill:rgb(141,141,141);fill-opacity:0.51;"/>
            <path id="rect4841" d="M-22.875,31.531C-22.875,31.272 -23.085,31.062 -23.344,31.062L-48.531,31.062C-48.79,31.062 -49,31.272 -49,31.531C-49,31.789 -48.79,32 -48.531,32L-23.344,32C-23.085,32 -22.875,31.789 -22.875,31.531Z" style="fill:rgb(141,141,141);fill-opacity:0.51;"/>
            <path id="rect4843" d="M-22.875,33.531C-22.875,33.272 -23.085,33.062 -23.344,33.062L-48.531,33.062C-48.79,33.062 -49,33.272 -49,33.531C-49,33.789 -48.79,34 -48.531,34L-23.344,34C-23.085,34 -22.875,33.789 -22.875,33.531Z" style="fill:rgb(141,141,141);fill-opacity:0.51;"/>
            <path id="rect4845" d="M-22.875,35.531C-22.875,35.272 -23.085,35.062 -23.344,35.062L-48.531,35.062C-48.79,35.062 -49,35.272 -49,35.531C-49,35.789 -48.79,36 -48.531,36L-23.344,36C-23.085,36 -22.875,35.789 -22.875,35.531Z" style="fill:rgb(141,141,141);fill-opacity:0.51;"/>
            <path id="rect4849" d="M-36.17,37.531C-36.17,37.272 -36.38,37.062 -36.639,37.062L-48.531,37.062C-48.79,37.062 -49,37.272 -49,37.531C-49,37.789 -48.79,38 -48.531,38L-36.639,38C-36.38,38 -36.17,37.789 -36.17,37.531Z" style="fill:rgb(141,141,141);fill-opacity:0.51;"/>
            <path id="rect5533" d="M-22.875,17.531C-22.875,17.272 -23.085,17.062 -23.344,17.062L-48.531,17.062C-48.79,17.062 -49,17.272 -49,17.531C-49,17.789 -48.79,18 -48.531,18L-23.344,18C-23.085,18 -22.875,17.789 -22.875,17.531Z" style="fill:rgb(141,141,141);fill-opacity:0.51;"/>
        </g>
    </g>
    <g id="layer2">
        <g id="path4112" transform="matrix(0.70455,0,0,0.602,15.976,20.077)">
            <path d="M45.053,38.909C45.053,43.01 35.933,46.384 24.85,46.384C13.767,46.384 4.647,43.01 4.647,38.909C4.647,34.808 13.767,31.434 24.85,31.434C35.933,31.434 45.053,34.808 45.053,38.909Z" style="fill:url(#_Radial11);fill-rule:nonzero;"/>
        </g>
        <g id="g3545" transform="matrix(1,0,0,1,-44,-0.99911)">
            <path id="path2732" d="M83.187,43.251C83.187,44.927 81.732,45.776 80.255,46.2C78.033,46.838 76.25,46.741 74.393,46.2C72.843,45.748 71.461,44.825 71.461,43.251L71.461,37.719C71.461,36.127 72.788,34.768 74.393,34.768L80.161,34.393C82.113,34.393 83.389,33.174 83.389,31.174L83.921,28.5L86.119,28.5C87.826,28.5 88.629,29.768 89.05,31.449C89.637,33.784 89.663,35.53 89.05,37.35C88.458,39.118 87.823,40.299 86.119,40.299L77.325,40.299L77.325,40.288L83.187,40.288L83.187,43.251Z" style="fill:url(#_Linear12);fill-rule:nonzero;"/>
            <path id="path2736" d="M79.523,43.618C79.523,43.007 80.016,42.512 80.622,42.512C81.23,42.512 81.721,43.007 81.721,43.618C81.721,44.23 81.23,44.725 80.622,44.725C80.016,44.725 79.523,44.23 79.523,43.618Z" style="fill:white;fill-rule:nonzero;"/>
            <path id="path2742" d="M83.914,28.5L83.914,31.093C83.914,32.734 80.533,34.781 80.258,34.781L74.508,34.781L73.27,34.907C72.009,35.23 72.161,36.055 71.789,37.593C71.651,38.163 71.547,38.697 71.477,39.187C71.472,39.222 71.482,39.246 71.477,39.281L71.477,40.906C75.313,36.626 79.404,36.303 81.446,36.312C85.519,36.33 87.438,35.329 89.383,33.125C89.377,33.081 89.39,33.043 89.383,33C89.308,32.509 89.177,31.984 89.039,31.437C88.842,30.649 88.584,29.956 88.164,29.437C88.156,29.427 88.142,29.416 88.133,29.406C88.128,29.402 88.107,29.41 88.102,29.406C88.088,29.389 88.085,29.36 88.071,29.343C88.041,29.323 88.038,29.301 88.008,29.281C88.001,29.273 87.984,29.289 87.977,29.281C87.533,28.993 86.993,28.778 86.446,28.687C85.95,28.605 85.452,28.543 84.946,28.5L83.914,28.5Z" style="fill:url(#_Linear13);fill-rule:nonzero;"/>
            <path id="path2744" d="M83.481,43.251C83.481,44.927 81.732,45.776 80.255,46.2C78.033,46.838 76.25,46.741 74.393,46.2C72.843,45.748 71.461,44.825 71.461,43.251L71.461,37.425C71.461,35.539 72.83,34.516 74.393,34.516L79.606,34.485C81.559,34.485 83.535,32.486 83.535,30.486L83.535,28.5L86.119,28.5C87.826,28.5 88.629,29.768 89.05,31.449C89.637,33.784 89.663,35.53 89.05,37.35C88.458,39.118 87.823,40.509 86.119,40.509L77.325,40.509L77.325,40.497L83.481,40.518L83.481,43.251Z" style="fill:none;fill-rule:nonzero;stroke:rgb(187,148,0);stroke-width:1px;stroke-linecap:butt;stroke-linejoin:miter;"/>
            <path id="path2746" d="M84.037,29L84.037,30.468C84.037,32.754 81.686,35.029 79.446,35.029L74.383,35.029C73.061,35.029 71.977,36.404 71.977,37.718L71.977,43.25C71.977,43.891 72.205,44.369 72.664,44.781C73.123,45.193 73.814,45.507 74.539,45.718C76.329,46.24 77.961,46.334 80.102,45.718C80.797,45.519 81.722,45.142 82.187,44.739C82.652,44.336 82.989,43.943 82.989,43.25L82.989,41.022L76.821,41.022L76.821,39.991L83.696,39.991L83.696,40.022L86.133,40.022C86.87,40.022 87.23,39.732 87.596,39.308C87.962,38.884 88.281,38.052 88.571,37.187C89.151,35.463 89.143,33.843 88.571,31.562C88.371,30.766 88.081,30.122 87.696,29.687C87.31,29.252 86.863,29 86.133,29L84.037,29ZM85.037,30L86.133,30C86.452,30 86.869,30.257 86.946,30.343C87.168,30.595 87.424,31.104 87.602,31.812C88.148,33.986 88.149,35.342 87.633,36.875C87.356,37.701 87.068,38.479 86.852,38.71C86.657,38.918 86.244,39.022 86.133,39.022L84.696,39.022L84.696,38.991L75.821,38.991L75.821,42.022L81.989,42.022L81.989,43.25C81.989,43.696 81.392,43.973 81.289,44.062C80.99,44.321 80.46,44.575 79.852,44.75C77.874,45.318 76.477,45.232 74.821,44.75C74.194,44.567 73.651,44.299 73.352,44.031C73.345,44.025 73.328,44.006 73.321,44C73.278,43.959 73.227,43.908 73.196,43.875C73.166,43.84 73.123,43.781 73.102,43.75C73.09,43.731 73.054,43.681 73.039,43.656C73.024,43.621 73.017,43.57 73.008,43.531C73.002,43.499 72.98,43.441 72.977,43.406C72.974,43.361 72.977,43.301 72.977,43.25L72.977,37.718C72.977,36.96 73.625,36.029 74.383,36.029L79.446,36.029C82.262,36.029 85.037,33.325 85.037,30.468L85.037,30Z" style="fill:white;fill-opacity:0.38;fill-rule:nonzero;"/>
            <g id="g3534" transform="matrix(1,0,0,1,0.038609,19.855)">
                <path id="path2730" d="M70.815,4.826C70.815,3.149 71.265,2.237 73.747,1.802C75.432,1.507 77.593,1.47 79.609,1.802C81.201,2.065 82.541,3.251 82.541,4.826L82.541,10.357C82.541,11.979 81.24,13.308 79.609,13.308L74.293,13.602C72.304,13.602 70.249,15.34 70.249,17.258L70.081,19.576L68.066,19.576C66.361,19.576 65.369,18.347 64.952,16.627C64.389,14.316 64.413,12.939 64.952,10.726C65.418,8.796 66.91,7.777 68.615,7.777L76.679,7.777L76.679,7.757L70.815,7.757L70.815,4.826Z" style="fill:url(#_Linear14);fill-rule:nonzero;"/>
                <path id="path2734" d="M72.281,4.459C72.281,3.846 72.772,3.351 73.38,3.351C73.986,3.351 74.479,3.846 74.479,4.459C74.479,5.069 73.986,5.564 73.38,5.564C72.772,5.564 72.281,5.069 72.281,4.459Z" style="fill:white;fill-rule:nonzero;"/>
                <path id="path2738" d="M76.175,1.558C75.307,1.579 74.474,1.679 73.737,1.808C71.255,2.242 70.831,3.163 70.831,4.839L70.831,7.746L76.675,7.746L76.675,7.777L68.612,7.777C66.907,7.777 65.423,8.784 64.956,10.714C64.639,12.017 64.495,13.036 64.55,14.12C68.411,9.744 72.555,9.424 74.612,9.433C78.685,9.451 80.604,8.449 82.55,6.246L82.55,4.839C82.55,3.265 81.204,2.071 79.612,1.808C78.478,1.621 77.29,1.531 76.175,1.558Z" style="fill:url(#_Linear15);fill-rule:nonzero;"/>
                <path id="path3530" d="M70.481,4.895C70.481,3.218 72.23,2.369 73.707,1.946C75.928,1.307 77.711,1.405 79.568,1.946C81.119,2.397 82.5,3.32 82.5,4.895L82.5,10.426C82.5,12.018 81.173,13.63 79.568,13.63L74.107,13.63C72.574,13.63 70.427,15.317 70.427,17.317L70.427,19.645L67.843,19.645C66.136,19.645 65.332,18.377 64.911,16.696C64.325,14.361 64.299,12.615 64.911,10.795C65.504,9.028 66.138,7.636 67.843,7.636L76.636,7.636L76.636,7.648L70.481,7.627L70.481,4.895Z" style="fill:none;fill-rule:nonzero;stroke:rgb(39,78,112);stroke-width:1px;stroke-linecap:butt;stroke-linejoin:miter;"/>
                <path id="path3532" d="M69.925,19.146L69.925,17.43C69.925,15.144 72.008,13.116 74.249,13.116L79.578,13.116C80.901,13.116 81.985,11.741 81.985,10.427L81.985,4.896C81.985,4.255 81.756,3.777 81.297,3.364C80.838,2.952 80.148,2.638 79.422,2.427C77.632,1.906 76,1.812 73.86,2.427C73.164,2.626 72.24,3.004 71.774,3.407C71.309,3.809 70.972,4.202 70.972,4.896L70.972,7.123L77.141,7.123L77.141,8.154L70.266,8.154L70.266,8.123L67.828,8.123C67.091,8.123 66.731,8.413 66.365,8.837C65.999,9.261 65.681,10.093 65.391,10.958C64.811,12.682 64.818,14.302 65.391,16.583C65.59,17.38 65.88,18.023 66.266,18.458C66.651,18.893 67.099,19.146 67.828,19.146L69.925,19.146ZM68.925,18.146L67.828,18.146C67.509,18.146 67.092,17.888 67.016,17.802C66.793,17.551 66.537,17.042 66.36,16.333C65.814,14.16 65.812,12.803 66.328,11.271C66.605,10.444 66.893,9.666 67.11,9.436C67.305,9.227 67.718,9.123 67.828,9.123L69.266,9.123L69.266,9.154L78.141,9.154L78.141,6.123L71.972,6.123L71.972,4.896C71.972,4.449 72.569,4.172 72.672,4.083C72.971,3.824 73.501,3.57 74.11,3.396C76.087,2.827 77.485,2.913 79.141,3.396C79.768,3.578 80.311,3.846 80.61,4.114C80.617,4.121 80.634,4.139 80.641,4.146C80.683,4.186 80.735,4.237 80.766,4.271C80.795,4.306 80.839,4.364 80.86,4.396C80.871,4.415 80.907,4.465 80.922,4.489C80.937,4.524 80.944,4.575 80.953,4.614C80.96,4.646 80.981,4.704 80.985,4.739C80.988,4.784 80.985,4.845 80.985,4.896L80.985,10.427C80.985,11.185 80.336,12.116 79.578,12.116L74.249,12.116C71.432,12.116 68.925,14.573 68.925,17.43L68.925,18.146Z" style="fill:white;fill-opacity:0.16;fill-rule:nonzero;"/>
            </g>
        </g>
    </g>
    <defs>
        <radialGradient id="_Radial1" cx="0" cy="0" r="1" gradientUnits="userSpaceOnUse" gradientTransform="matrix(5.0095,0,0,3.5,37.993,43.5)"><stop offset="0" style="stop-color:black;stop-opacity:1"/><stop offset="1" style="stop-color:black;stop-opacity:0"/></radialGradient>
        <radialGradient id="_Radial2" cx="0" cy="0" r="1" gradientUnits="userSpaceOnUse" gradientTransform="matrix(5.0095,0,0,3.5,-10.007,-43.5)"><stop offset="0" style="stop-color:black;stop-opacity:1"/><stop offset="1" style="stop-color:black;stop-opacity:0"/></radialGradient>
        <linearGradient id="_Linear3" x1="0" y1="0" x2="1" y2="0" gradientUnits="userSpaceOnUse" gradientTransform="matrix(4.30402e-16,-7.029,7.029,4.30402e-16,25.058,47.028)"><stop offset="0" style="stop-color:black;stop-opacity:0"/><stop offset="0.5" style="stop-color:black;stop-opacity:1"/><stop offset="1" style="stop-color:black;stop-opacity:0"/></linearGradient>
        <radialGradient id="_Radial4" cx="0" cy="0" r="1" gradientUnits="userSpaceOnUse" gradientTransform="matrix(83.2822,0,0,90.2717,32.625,37.2058)"><stop offset="0" style="stop-color:rgb(250,250,250);stop-opacity:1"/><stop offset="1" style="stop-color:rgb(187,187,187);stop-opacity:1"/></radialGradient>
        <radialGradient id="_Radial5" cx="0" cy="0" r="1" gradientUnits="userSpaceOnUse" gradientTransform="matrix(36.5541,0,0,38.9903,11.898,4.52575)"><stop offset="0" style="stop-color:rgb(163,163,163);stop-opacity:1"/><stop offset="1" style="stop-color:rgb(138,138,138);stop-opacity:1"/></radialGradient>
        <radialGradient id="_Radial6" cx="0" cy="0" r="1" gradientUnits="userSpaceOnUse" gradientTransform="matrix(36.9482,0,0,39.4106,11.2388,8.15274)"><stop offset="0" style="stop-color:white;stop-opacity:1"/><stop offset="1" style="stop-color:rgb(248,248,248);stop-opacity:1"/></radialGradient>
        <radialGradient id="_Radial7" cx="0" cy="0" r="1" gradientUnits="userSpaceOnUse" gradientTransform="matrix(7.48982,9.93205e-22,-7.13909e-22,5.51123,38.0232,13.1969)"><stop offset="0" style="stop-color:black;stop-opacity:0.36"/><stop offset="1" style="stop-color:black;stop-opacity:0"/></radialGradient>
        <radialGradient id="_Radial8" cx="0" cy="0" r="1" gradientUnits="userSpaceOnUse" gradientTransform="matrix(12.864,0.87497,-0.957603,14.0779,29.4429,15.5515)"><stop offset="0" style="stop-color:rgb(250,250,250);stop-opacity:1"/><stop offset="1" style="stop-color:rgb(187,187,187);stop-opacity:1"/></radialGradient>
        <radialGradient id="_Radial9" cx="0" cy="0" r="1" gradientUnits="userSpaceOnUse" gradientTransform="matrix(12.5238,-8.85247e-16,9.44215e-16,13.3578,30.6752,10.4197)"><stop offset="0" style="stop-color:rgb(163,163,163);stop-opacity:1"/><stop offset="1" style="stop-color:rgb(138,138,138);stop-opacity:1"/></radialGradient>
        <linearGradient id="_Linear10" x1="0" y1="0" x2="1" y2="0" gradientUnits="userSpaceOnUse" gradientTransform="matrix(1.12301,-0.811245,0.811245,1.12301,35.0967,10.4748)"><stop offset="0" style="stop-color:white;stop-opacity:1"/><stop offset="1" style="stop-color:white;stop-opacity:0"/></linearGradient>
        <radialGradient id="_Radial11" cx="0" cy="0" r="1" gradientUnits="userSpaceOnUse" gradientTransform="matrix(20.2031,0,0,7.47515,24.8507,38.9086)"><stop offset="0" style="stop-color:black;stop-opacity:0.4"/><stop offset="1" style="stop-color:black;stop-opacity:0"/></radialGradient>
        <linearGradient id="_Linear12" x1="0" y1="0" x2="1" y2="0" gradientUnits="userSpaceOnUse" gradientTransform="matrix(-0.48214,17.407,-17.407,-0.48214,78.0987,28.5005)"><stop offset="0" style="stop-color:rgb(255,226,83);stop-opacity:1"/><stop offset="1" style="stop-color:rgb(255,202,28);stop-opacity:1"/></linearGradient>
        <linearGradient id="_Linear13" x1="0" y1="0" x2="1" y2="0" gradientUnits="userSpaceOnUse" gradientTransform="matrix(6.44402e-16,-10.5239,10.5239,6.44402e-16,78.9724,39.7469)"><stop offset="0" style="stop-color:white;stop-opacity:0.84"/><stop offset="1" style="stop-color:white;stop-opacity:0.14"/></linearGradient>
        <linearGradient id="_Linear14" x1="0" y1="0" x2="1" y2="0" gradientUnits="userSpaceOnUse" gradientTransform="matrix(18.0023,0,0,18.0023,64.5389,10.5724)"><stop offset="0" style="stop-color:rgb(55,120,174);stop-opacity:1"/><stop offset="1" style="stop-color:rgb(54,108,153);stop-opacity:1"/></linearGradient>
        <linearGradient id="_Linear15" x1="0" y1="0" x2="1" y2="0" gradientUnits="userSpaceOnUse" gradientTransform="matrix(6.44402e-16,-10.5239,10.5239,6.44402e-16,72.1324,12.8549)"><stop offset="0" style="stop-color:white;stop-opacity:0.38"/><stop offset="1" style="stop-color:white;stop-opacity:0.06"/></linearGradient>
    </defs>
</svg>
