<?xml version="1.0" encoding="UTF-8" standalone="no"?>
<!DOCTYPE svg PUBLIC "-//W3C//DTD SVG 1.1//EN" "http://www.w3.org/Graphics/SVG/1.1/DTD/svg11.dtd">
<svg width="100%" height="100%" viewBox="0 0 8064 8432" version="1.1" xmlns="http://www.w3.org/2000/svg" xmlns:xlink="http://www.w3.org/1999/xlink" xml:space="preserve" xmlns:serif="http://www.serif.com/" style="fill-rule:evenodd;clip-rule:evenodd;stroke-linejoin:round;stroke-miterlimit:2;">
    <g transform="matrix(1,0,0,1,0,-172.309)">
        <g id="YAML" transform="matrix(1,0,0,1,8856.61,-168.193)">
            <rect x="-8856.61" y="340.502" width="8063.44" height="8431.21" style="fill:none;"/>
            <clipPath id="_clip1">
                <rect x="-8856.61" y="340.502" width="8063.44" height="8431.21"/>
            </clipPath>
            <g clip-path="url(#_clip1)">
                <g transform="matrix(16.3803,0,0,16.3803,-8807.2,399.964)">
                    <path d="M84.68,237.33L375.8,237.33L375.8,155.47L289.78,155.47C280.76,155.47 268.16,150.59 262.22,144.64C256.27,138.69 252.62,127.96 252.62,118.94L252.62,31.81L33.92,31.81C33.15,31.81 32.58,32.2 32.2,32.58C31.62,32.96 31.43,33.54 31.43,34.31L31.43,477.54C31.43,478.12 31.81,478.88 32.2,479.27C32.58,479.84 33.35,480.04 33.92,480.04L373.31,480.04C374.07,480.04 374.03,479.65 374.41,479.27C374.99,478.88 375.8,478.12 375.8,477.54L375.8,431.08L84.68,431.08C67.43,431.08 53.21,416.92 53.21,399.61L53.21,268.79C53.21,251.48 67.37,237.33 84.68,237.33ZM86.54,290.15L116.33,290.15L133.9,319.38L151.38,290.15L181.01,290.15L147.3,340.62L147.3,376.98L120.38,376.98L120.38,340.62L86.54,290.15ZM229.58,362.67L199.18,362.67L194.82,376.98L167.43,376.98L200.11,290.15L229.48,290.15L262.02,376.98L233.93,376.98L229.58,362.67ZM223.9,343.88L214.42,312.67L204.9,343.88L223.9,343.88ZM268.22,290.15L303.62,290.15L317.1,342.99L330.62,290.15L365.85,290.15L365.85,376.98L343.9,376.98L343.9,310.79L326.96,376.98L307.07,376.98L290.17,310.79L290.17,376.98L268.22,376.98L268.22,290.15ZM378.2,290.15L405,290.15L405,355.64L446.96,355.64L446.96,376.98L378.2,376.98L378.2,290.15ZM407.18,237.33L448.54,237.33C465.84,237.33 480,251.53 480,268.79L480,399.61C480,416.87 465.8,431.08 448.54,431.08L407.18,431.08L407.18,487.48C407.18,494.2 404.49,500.14 400.08,504.56C395.67,508.97 389.72,511.65 383.01,511.65L24.17,511.65C17.46,511.65 11.51,508.97 7.1,504.56C2.69,500.14 0,494.2 0,487.48L0,24.37C0,17.65 2.69,11.7 7.1,7.29C11.51,2.88 17.65,0.19 24.17,0.19L268.66,0.19C269.24,0 269.82,0 270.39,0C273.08,0 275.76,1.15 277.68,2.88L278.06,2.88C278.45,3.07 278.64,3.26 279.02,3.65L403.92,130.08C406.03,132.18 407.56,135.06 407.56,138.32C407.56,139.28 407.37,140.05 407.18,141.01L407.18,237.33ZM281.13,116.45L281.13,37.22L370.35,127.58L292.26,127.58C289.19,127.58 286.51,126.24 284.4,124.32C282.48,122.4 281.13,119.52 281.13,116.45Z" style="fill:rgb(11,150,224);"/>
                </g>
            </g>
        </g>
    </g>
</svg>
